{
    "asset" : {
        "generator" : "Khronos glTF Blender I/O v3.4.50",
        "version" : "2.0"
    },
    "scene" : 0,
    "scenes" : [
        {
            "name" : "Scene",
            "nodes" : [
                0
            ]
        }
    ],
    "nodes" : [
        {
            "mesh" : 0,
            "name" : "snake_head",
            "scale" : [
                0.02539999969303608,
                0.02539999969303608,
                0.02539999969303608
            ],
            "translation" : [
                0,
                1,
                0.0005614092806354165
            ]
        }
    ],
    "materials" : [
        {
            "doubleSided" : true,
            "name" : "Material.001",
            "pbrMetallicRoughness" : {
                "baseColorFactor" : [
                    0.8000000715255737,
                    0.510093092918396,
                    0.7674183249473572,
                    1
                ],
                "metallicFactor" : 0,
                "roughnessFactor" : 0.4933333396911621
            }
        }
    ],
    "meshes" : [
        {
            "name" : "Mesh",
            "primitives" : [
                {
                    "attributes" : {
                        "POSITION" : 0,
                        "TEXCOORD_0" : 1,
                        "NORMAL" : 2
                    },
                    "indices" : 3,
                    "material" : 0
                }
            ]
        }
    ],
    "accessors" : [
        {
            "bufferView" : 0,
            "componentType" : 5126,
            "count" : 5685,
            "max" : [
                24.358543395996094,
                20.794580459594727,
                50.26076889038086
            ],
            "min" : [
                -24.358530044555664,
                -37.07551193237305,
                -53.68864059448242
            ],
            "type" : "VEC3"
        },
        {
            "bufferView" : 1,
            "componentType" : 5126,
            "count" : 5685,
            "type" : "VEC2"
        },
        {
            "bufferView" : 2,
            "componentType" : 5126,
            "count" : 5685,
            "type" : "VEC3"
        },
        {
            "bufferView" : 3,
            "componentType" : 5123,
            "count" : 31872,
            "type" : "SCALAR"
        }
    ],
    "bufferViews" : [
        {
            "buffer" : 0,
            "byteLength" : 68220,
            "byteOffset" : 0,
            "target" : 34962
        },
        {
            "buffer" : 0,
            "byteLength" : 45480,
            "byteOffset" : 68220,
            "target" : 34962
        },
        {
            "buffer" : 0,
            "byteLength" : 68220,
            "byteOffset" : 113700,
            "target" : 34962
        },
        {
            "buffer" : 0,
            "byteLength" : 63744,
            "byteOffset" : 181920,
            "target" : 34963
        }
    ],
    "buffers" : [
        {
            "byteLength" : 245664,
            "uri" : "data:application/octet-stream;base64,"
        }
    ]
}
